<svg xmlns="http://www.w3.org/2000/svg" version="1.1" xmlns:xlink="http://www.w3.org/1999/xlink" xmlns:svgjs="http://svgjs.dev/svgjs" width="1000" height="1000" viewBox="0 0 1000 1000"><rect width="1000" height="1000" fill="#ffffff"></rect><g transform="matrix(0.7,0,0,0.7,149.57575757575756,298.66408027445675)"><svg viewBox="0 0 396 228" data-background-color="#ffffff" preserveAspectRatio="xMidYMid meet" height="575" width="1000" xmlns="http://www.w3.org/2000/svg" xmlns:xlink="http://www.w3.org/1999/xlink"><g id="tight-bounds" transform="matrix(1,0,0,1,0.2400000000000091,0.04867005571145455)"><svg viewBox="0 0 395.52 227.9026598885771" height="227.9026598885771" width="395.52"><g><svg viewBox="0 0 397.4975999999999 229.04217318801994" height="227.9026598885771" width="395.52"><g><svg viewBox="0 0 397.4975999999999 229.04217318801994" height="229.04217318801994" width="397.4975999999999"><g id="textblocktransform"><svg viewBox="0 0 397.4975999999999 229.04217318801994" height="229.04217318801994" width="397.4975999999999" id="textblock"><g><rect width="397.4975999999999" height="14.83710556432612" x="0" y="182.0040560665557" fill="#000000" opacity="1" stroke-width="0" stroke="transparent" fill-opacity="1" class="rect-o-0" data-fill-palette-color="primary" rx="1%" id="o-0" data-palette-color="#000000"></rect></g><g transform="matrix(1,0,0,1,0.9887999999999693,0)"><svg viewBox="0 0 395.52 164.5257903494176" height="164.5257903494176" width="395.52"><g transform="matrix(1,0,0,1,0,0)"><svg width="395.52" viewBox="3.4000000953674316 -36 120.18999481201172 50" height="164.5257903494176" data-palette-color="#000000"><path d="M8.2 4.35L8.2 4.35Q5.8 4.15 5.15 3.08 4.5 2 4.5 0.35L4.5 0.35Q4.5-1.45 5.23-4.08 5.95-6.7 7.05-9.75 8.15-12.8 9.3-15.8L9.3-15.8Q8.75-15.75 7.9-15.68 7.05-15.6 5.98-15.48 4.9-15.35 3.6-15.15L3.6-15.15Q3.7-16.5 4.63-17.28 5.55-18.05 7.05-18.43 8.55-18.8 10.4-18.85L10.4-18.85Q11.75-22.6 13.2-26.2 14.65-29.8 16.1-32.8L16.1-32.8Q15.65-32.85 15.2-32.88 14.75-32.9 14.2-32.9L14.2-32.9Q11.05-32.9 9.33-32.25 7.6-31.6 6.95-30.3 6.3-29 6.3-27L6.3-27Q6.3-25.85 6.48-24.9 6.65-23.95 7.05-22.85L7.05-22.85Q5.15-23.2 4.28-24.25 3.4-25.3 3.4-26.9L3.4-26.9Q3.4-29.5 5.28-31.5 7.15-33.5 10.33-34.63 13.5-35.75 17.4-35.75L17.4-35.75Q20.05-35.75 22.6-35.38 25.15-35 27.45-35L27.45-35Q28.6-35 29.55-35.15 30.5-35.3 31.6-35.6L31.6-35.6Q29.6-33.3 28.25-32.55 26.9-31.8 25.55-31.8L25.55-31.8Q24.4-31.8 22.55-32.13 20.7-32.45 18.4-32.6L18.4-32.6Q17.75-31 16.98-28.75 16.2-26.5 15.38-23.95 14.55-21.4 13.7-18.8L13.7-18.8Q16.25-18.65 18.43-18.35 20.6-18.05 22.65-18L22.65-18Q22.2-17.35 21.65-16.98 21.1-16.6 20.13-16.43 19.15-16.25 17.43-16.18 15.7-16.1 12.9-16.05L12.9-16.05Q12.55-14.85 12.1-13.35 11.65-11.85 11.33-10.63 11-9.4 10.8-8.9L10.8-8.9Q9.6-4.75 8.93-1.5 8.25 1.75 8.2 4.35ZM28.6 1.5L28.6 1.5Q26.4 1.5 25.47 0 24.55-1.5 24.55-3.7L24.55-3.7Q24.55-6.1 25.45-9.4 26.35-12.7 27.82-16.35 29.3-20 31.05-23.48 32.8-26.95 34.57-29.78 36.35-32.6 37.82-34.3 39.3-36 40.2-36L40.2-36Q40.8-36 41.17-35.35 41.55-34.7 41.77-33.83 42-32.95 42-32.2L42-32.2Q42-30.85 41.32-28.68 40.65-26.5 39.42-23.85 38.2-21.2 36.52-18.48 34.85-15.75 32.85-13.28 30.85-10.8 28.65-9L28.65-9Q28.35-7.65 28.17-6.4 28-5.15 28-4.05L28-4.05Q28-2.15 28.57-1.25 29.15-0.35 30.2-0.35L30.2-0.35Q31.5-0.35 32.82-1.53 34.15-2.7 35.35-4.53 36.55-6.35 37.4-8.3L37.4-8.3 38.3-7.85Q36.25-3.5 33.8-1 31.35 1.5 28.6 1.5ZM29.25-11.15L29.25-11.15Q30.95-12.95 32.57-15.18 34.2-17.4 35.57-19.8 36.95-22.2 38-24.43 39.05-26.65 39.62-28.43 40.2-30.2 40.2-31.2L40.2-31.2Q40.2-31.55 40.12-31.65 40.05-31.75 39.95-31.8L39.95-31.8Q39.55-31.8 38.62-30.58 37.7-29.35 36.42-27.25 35.15-25.15 33.82-22.5 32.5-19.85 31.3-16.93 30.1-14 29.25-11.15ZM41.89 2.2L41.89 2.2Q38.8 2.2 37.2 0.5 35.59-1.2 35.59-3.7L35.59-3.7Q35.59-5.9 36.72-8.4 37.84-10.9 39.72-13.1 41.59-15.3 43.87-16.65 46.14-18 48.39-18L48.39-18Q49.59-18 50.62-17.38 51.64-16.75 51.64-14.85L51.64-14.85Q51.64-12.95 50.55-11.3 49.45-9.65 47.59-8.35 45.74-7.05 43.57-6.23 41.39-5.4 39.2-5.15L39.2-5.15Q39.09-4.75 39.07-4.38 39.05-4 39.05-3.6L39.05-3.6Q39.05-3 39.17-2.3 39.3-1.6 39.72-0.95 40.14-0.3 40.92 0.1 41.7 0.5 42.95 0.5L42.95 0.5Q45.09 0.5 47.2-0.7 49.3-1.9 51.12-3.88 52.95-5.85 54.2-8.25L54.2-8.25 54.95-7.7Q53.59-4.7 51.49-2.48 49.39-0.25 46.92 0.98 44.45 2.2 41.89 2.2ZM39.55-6.4L39.55-6.4Q40.89-6.75 42.55-7.6 44.2-8.45 45.74-9.63 47.3-10.8 48.3-12.23 49.3-13.65 49.3-15.2L49.3-15.2Q49.3-15.75 49.09-16 48.89-16.25 48.3-16.25L48.3-16.25Q47.14-16.25 45.82-15.38 44.49-14.5 43.27-13.05 42.05-11.6 41.05-9.88 40.05-8.15 39.55-6.4ZM55.54 2.95L55.54 2.95Q55.24 2.95 55.07 2.7 54.89 2.45 54.89 2.1L54.89 2.1Q54.89 1.5 55.94-0.03 56.99-1.55 58.67-3.63 60.34-5.7 62.29-7.85L62.29-7.85Q62.04-10.2 61.64-11.8 61.24-13.4 60.09-13.4L60.09-13.4Q58.94-13.4 57.99-12.33 57.04-11.25 56.14-9.63 55.24-8 54.19-6.25L54.19-6.25 53.59-7.25Q54.29-8.55 54.92-10 55.54-11.45 56.32-12.7 57.09-13.95 58.19-14.75 59.29-15.55 60.94-15.55L60.94-15.55Q62.89-15.55 63.84-14.25 64.79-12.95 65.24-10.95L65.24-10.95Q67.54-13.35 69.42-14.98 71.29-16.6 71.99-16.6L71.99-16.6Q72.24-16.6 72.77-16.4 73.29-16.2 73.34-15.8L73.34-15.8Q72.79-15.8 71.57-14.85 70.34-13.9 68.79-12.33 67.24-10.75 65.54-8.8L65.54-8.8Q65.69-7.6 65.82-6.18 65.94-4.75 66.17-3.5 66.39-2.25 66.89-1.48 67.39-0.7 68.29-0.7L68.29-0.7Q69.19-0.7 70.22-1.45 71.24-2.2 72.22-3.38 73.19-4.55 74.02-5.85 74.84-7.15 75.34-8.2L75.34-8.2 75.94-7.65Q75.19-5.45 73.74-3.4 72.29-1.35 70.52-0.03 68.74 1.3 66.94 1.3L66.94 1.3Q65.49 1.3 64.62 0.35 63.74-0.6 63.29-2.13 62.84-3.65 62.59-5.3L62.59-5.3Q60.54-2.9 58.82-0.73 57.09 1.45 56.19 2.55L56.19 2.55Q55.89 2.95 55.54 2.95ZM77.99 1.35L77.99 1.35Q75.94 1.35 74.94 0.1 73.94-1.15 73.94-2.9L73.94-2.9Q73.94-4.05 74.37-5.8 74.79-7.55 75.49-9.47 76.19-11.4 77.12-13.1 78.04-14.8 79.12-15.88 80.19-16.95 81.24-16.95L81.24-16.95Q81.74-16.95 82.09-16.65 82.44-16.35 82.44-15.75L82.44-15.75Q82.44-15.15 81.67-13.8 80.89-12.45 79.87-10.73 78.84-9 78.07-7.1 77.29-5.2 77.29-3.5L77.29-3.5Q77.29-1.75 77.87-1.18 78.44-0.6 79.64-0.6L79.64-0.6Q81.34-0.6 83.29-2.3 85.24-4 87.39-8.25L87.39-8.25 87.94-7.65Q86.39-3.35 83.69-1 80.99 1.35 77.99 1.35ZM83.94-21.4L83.94-21.4Q83.09-21.4 82.42-21.83 81.74-22.25 81.74-23.15L81.74-23.15Q81.74-24.25 82.99-25.05 84.24-25.85 85.49-25.85L85.49-25.85Q86.29-25.85 86.82-25.5 87.34-25.15 87.34-24.2L87.34-24.2Q87.34-23.25 86.27-22.33 85.19-21.4 83.94-21.4ZM85.89 14L85.89 14Q85.39 14 84.69 13.68 83.99 13.35 83.49 12.38 82.99 11.4 82.99 9.45L82.99 9.45Q82.99 7.3 83.71 3.78 84.44 0.25 85.74-3.98 87.04-8.2 88.74-12.68 90.44-17.15 92.41-21.3 94.39-25.45 96.49-28.78 98.59-32.1 100.61-34.05 102.64-36 104.49-36L104.49-36Q105.64-36 105.99-35.3 106.34-34.6 106.34-33.7L106.34-33.7Q106.34-31.55 105.16-29 103.99-26.45 102.04-23.88 100.09-21.3 97.71-18.98 95.34-16.65 92.89-15L92.89-15Q92.64-14.45 92.44-13.85 92.24-13.25 91.99-12.65L91.99-12.65Q92.54-12.55 92.86-12.05 93.19-11.55 93.24-11L93.24-11Q93.59-8.8 93.99-7.05 94.39-5.3 95.21-4.33 96.04-3.35 97.59-3.35L97.59-3.35Q99.34-3.35 100.59-4.63 101.84-5.9 103.24-8.25L103.24-8.25 104.14-7.65Q102.74-4.6 100.79-3.2 98.84-1.8 97.34-1.8L97.34-1.8Q96.49-1.8 95.51-2.23 94.54-2.65 93.69-3.35L93.69-3.35Q93.69-0.25 93.01 2.83 92.34 5.9 91.21 8.43 90.09 10.95 88.71 12.48 87.34 14 85.89 14ZM87.24 11.35L87.24 11.35Q87.79 11.35 88.46 10.38 89.14 9.4 89.79 7.8 90.44 6.2 90.96 4.28 91.49 2.35 91.81 0.45 92.14-1.45 92.14-3L92.14-3Q92.14-4.5 91.76-5.73 91.39-6.95 90.54-8.6L90.54-8.6Q89.34-4.95 88.36-1.55 87.39 1.85 86.86 4.6 86.34 7.35 86.34 9.05L86.34 9.05Q86.34 11.35 87.24 11.35ZM93.89-17.55L93.89-17.55Q97.09-20.5 99.39-23.4 101.69-26.3 102.94-28.58 104.19-30.85 104.19-31.8L104.19-31.8Q104.19-32.4 103.59-32.4L103.59-32.4Q102.29-32.4 100.69-30.38 99.09-28.35 97.34-25 95.59-21.65 93.89-17.55ZM104.49 14L104.49 14Q103.24 14 102.24 13.3 101.24 12.6 101.24 11.15L101.24 11.15Q101.24 9.55 102.09 8.3 102.94 7.05 104.34 5.98 105.74 4.9 107.49 3.98 109.24 3.05 111.04 2.2L111.04 2.2Q111.69 0.45 112.39-1.8 113.09-4.05 113.69-6.5L113.69-6.5Q112.09-4.05 110.29-2.25 108.49-0.45 106.44-0.45L106.44-0.45Q105.49-0.45 104.54-0.88 103.59-1.3 102.96-2.2 102.34-3.1 102.34-4.55L102.34-4.55Q102.34-5.9 102.81-7.75 103.29-9.6 103.99-11.38 104.69-13.15 105.46-14.3 106.24-15.45 106.79-15.45L106.79-15.45Q107.04-15.45 107.59-15.28 108.14-15.1 108.64-14.8 109.14-14.5 109.19-14.15L109.19-14.15Q108.74-13.5 108.19-12.33 107.64-11.15 107.11-9.7 106.59-8.25 106.24-6.9 105.89-5.55 105.89-4.55L105.89-4.55Q105.89-3.7 106.26-3.15 106.64-2.6 107.59-2.6L107.59-2.6Q108.59-2.6 109.76-3.53 110.94-4.45 112.09-5.88 113.24-7.3 114.24-8.9L114.24-8.9Q114.34-9.35 114.46-10 114.59-10.65 114.74-11.3L114.74-11.3Q114.94-12.05 115.51-12.9 116.09-13.75 117.34-13.75L117.34-13.75Q117.64-13.75 117.91-13.73 118.19-13.7 118.54-13.6L118.54-13.6Q118.54-12.8 118.06-10.63 117.59-8.45 116.71-5.58 115.84-2.7 114.69 0.3L114.69 0.3Q116.94-0.6 119.21-2.63 121.49-4.65 122.89-8.2L122.89-8.2 123.59-7.6Q122.84-5.2 121.31-3.4 119.79-1.6 117.89-0.3 115.99 1 114.09 1.85L114.09 1.85Q112.79 5.05 111.24 7.83 109.69 10.6 107.99 12.3 106.29 14 104.49 14ZM104.14 12.3L104.14 12.3Q104.94 12.3 106.69 10.33 108.44 8.35 110.39 3.7L110.39 3.7Q108.49 4.7 106.76 5.78 105.04 6.85 103.99 8.1 102.94 9.35 102.94 10.85L102.94 10.85Q102.94 11.3 103.21 11.8 103.49 12.3 104.14 12.3Z" opacity="1" transform="matrix(1,0,0,1,0,0)" fill="#000000" class="wordmark-text-0" data-fill-palette-color="primary" id="text-0"></path></svg></g></svg></g><g transform="matrix(1,0,0,1,0,214.31942734801993)"><svg viewBox="0 0 232.20979200000002 14.722745840000002" height="14.722745840000002" width="232.20979200000002"><g transform="matrix(1,0,0,1,0,0)"><svg width="232.20979200000002" viewBox="0 -29.5 719.9600219726562 45.650001525878906" height="14.722745840000002" data-palette-color="#61777f"><path d="M1.5 0L0 0 0-29.5 1.5-29.5 1.5 0ZM7.5 0L3 0 3-29.5 7.5-29.5 7.5 0ZM13.5 0L9 0 9-29.5 13.5-29.5 13.5 0ZM21 0L19.5 0 19.5-29.5 21-29.5 21 0ZM24 0L22.5 0 22.5-29.5 24-29.5 24 0ZM9.55 15.95L9.55 4.35 16.2 4.35 16.2 5.5 10.85 5.5 10.85 9.15 15.2 9.15 15.2 10.25 10.85 10.25 10.85 15.95 9.55 15.95ZM27 0L25.5 0 25.5-29.5 27-29.5 27 0ZM34.5 0L33 0 33-29.5 34.5-29.5 34.5 0ZM37.5 0L36 0 36-29.5 37.5-29.5 37.5 0ZM45 0L43.5 0 43.5-29.5 45-29.5 45 0ZM52.5 0L51 0 51-29.5 52.5-29.5 52.5 0ZM55.5 0L54 0 54-29.5 55.5-29.5 55.5 0ZM61.5 0L57 0 57-29.5 61.5-29.5 61.5 0ZM64.5 0L63 0 63-29.5 64.5-29.5 64.5 0ZM67.5 0L66 0 66-29.5 67.5-29.5 67.5 0ZM78 0L73.5 0 73.5-29.5 78-29.5 78 0ZM49.3 15.95L49.3 14.85 51.85 14.85 51.85 4.65 49.45 4.65 49.45 3.6 53.2 3.6 53.2 14.85 55.7 14.85 55.7 15.95 49.3 15.95ZM81 0L79.5 0 79.5-29.5 81-29.5 81 0ZM88.5 0L87 0 87-29.5 88.5-29.5 88.5 0ZM91.5 0L90 0 90-29.5 91.5-29.5 91.5 0ZM99 0L97.5 0 97.5-29.5 99-29.5 99 0ZM106.5 0L105 0 105-29.5 106.5-29.5 106.5 0ZM112.5 0L108 0 108-29.5 112.5-29.5 112.5 0ZM115.5 0L114 0 114-29.5 115.5-29.5 115.5 0ZM121.5 0L117 0 117-29.5 121.5-29.5 121.5 0ZM129 0L127.5 0 127.5-29.5 129-29.5 129 0ZM132 0L130.5 0 130.5-29.5 132-29.5 132 0ZM106.9 16.15L106.9 16.15Q105 16.15 103.9 15L103.9 15Q102.75 13.85 102.75 11.75L102.75 11.75Q102.75 10.35 103.3 9.3L103.3 9.3Q103.8 8.3 104.7 7.8L104.7 7.8Q105.55 7.25 106.65 7.25L106.65 7.25Q108.2 7.25 109.15 8.25L109.15 8.25Q110.09 9.3 110.09 11.3L110.09 11.3Q110.09 11.5 110.09 11.9L110.09 11.9 104.05 11.9Q104.09 13.45 104.9 14.25L104.9 14.25Q105.7 15.05 106.95 15.05L106.95 15.05Q108.3 15.05 109.15 14.1L109.15 14.1 109.9 14.85Q108.8 16.15 106.9 16.15ZM104.09 10.85L108.75 10.85Q108.75 9.65 108.15 8.95L108.15 8.95Q107.55 8.25 106.55 8.25L106.55 8.25Q105.65 8.25 104.95 8.9L104.95 8.9Q104.25 9.55 104.09 10.85L104.09 10.85ZM134.99 0L133.49 0 133.49-29.5 134.99-29.5 134.99 0ZM142.49 0L140.99 0 140.99-29.5 142.49-29.5 142.49 0ZM145.49 0L143.99 0 143.99-29.5 145.49-29.5 145.49 0ZM152.99 0L151.49 0 151.49-29.5 152.99-29.5 152.99 0ZM160.49 0L158.99 0 158.99-29.5 160.49-29.5 160.49 0ZM163.49 0L161.99 0 161.99-29.5 163.49-29.5 163.49 0ZM170.99 0L169.49 0 169.49-29.5 170.99-29.5 170.99 0ZM176.99 0L172.49 0 172.49-29.5 176.99-29.5 176.99 0ZM179.99 0L178.49 0 178.49-29.5 179.99-29.5 179.99 0ZM185.99 0L181.49 0 181.49-29.5 185.99-29.5 185.99 0ZM156.69 15.95L159.69 11.65 156.79 7.45 158.24 7.45 160.44 10.6 162.59 7.45 163.94 7.45 161.19 11.6 164.34 15.95 162.79 15.95 160.44 12.65 158.24 15.95 156.69 15.95ZM188.99 0L187.49 0 187.49-29.5 188.99-29.5 188.99 0ZM199.49 0L194.99 0 194.99-29.5 199.49-29.5 199.49 0ZM202.49 0L200.99 0 200.99-29.5 202.49-29.5 202.49 0ZM208.49 0L203.99 0 203.99-29.5 208.49-29.5 208.49 0ZM211.49 0L209.99 0 209.99-29.5 211.49-29.5 211.49 0ZM217.49 0L212.99 0 212.99-29.5 217.49-29.5 217.49 0ZM224.99 0L223.49 0 223.49-29.5 224.99-29.5 224.99 0ZM230.99 0L226.49 0 226.49-29.5 230.99-29.5 230.99 0ZM233.99 0L232.49 0 232.49-29.5 233.99-29.5 233.99 0ZM236.99 0L235.49 0 235.49-29.5 236.99-29.5 236.99 0ZM225.19 15.95L225.19 11.4 221.59 4.35 223.09 4.35 225.94 10 228.49 4.35 229.89 4.35 226.59 11.4 226.59 15.95 225.19 15.95ZM239.99 0L238.49 0 238.49-29.5 239.99-29.5 239.99 0ZM247.49 0L245.99 0 245.99-29.5 247.49-29.5 247.49 0ZM250.49 0L248.99 0 248.99-29.5 250.49-29.5 250.49 0ZM257.99 0L256.49 0 256.49-29.5 257.99-29.5 257.99 0ZM265.49 0L263.99 0 263.99-29.5 265.49-29.5 265.49 0ZM271.49 0L266.99 0 266.99-29.5 271.49-29.5 271.49 0ZM274.49 0L272.99 0 272.99-29.5 274.49-29.5 274.49 0ZM280.49 0L275.99 0 275.99-29.5 280.49-29.5 280.49 0ZM283.49 0L281.99 0 281.99-29.5 283.49-29.5 283.49 0ZM290.99 0L289.49 0 289.49-29.5 290.99-29.5 290.99 0ZM265.49 16.1L265.49 16.1Q264.34 16.1 263.44 15.55L263.44 15.55Q262.59 15 262.09 14L262.09 14Q261.54 13 261.54 11.7L261.54 11.7Q261.54 10.4 262.09 9.4L262.09 9.4Q262.59 8.4 263.44 7.85L263.44 7.85Q264.34 7.25 265.49 7.25L265.49 7.25Q266.63 7.25 267.49 7.85L267.49 7.85Q268.38 8.4 268.88 9.4L268.88 9.4Q269.38 10.4 269.38 11.7L269.38 11.7Q269.38 13 268.88 14L268.88 14Q268.38 15 267.49 15.55L267.49 15.55Q266.63 16.1 265.49 16.1ZM265.49 15L265.49 15Q266.19 15 266.79 14.55L266.79 14.55Q267.34 14.15 267.69 13.4L267.69 13.4Q267.99 12.6 267.99 11.65L267.99 11.65Q267.99 10.2 267.29 9.3L267.29 9.3Q266.59 8.4 265.49 8.4L265.49 8.4Q264.38 8.4 263.69 9.3L263.69 9.3Q262.99 10.2 262.99 11.65L262.99 11.65Q262.99 12.6 263.29 13.4L263.29 13.4Q263.63 14.15 264.19 14.55L264.19 14.55Q264.74 15 265.49 15ZM293.98 0L292.48 0 292.48-29.5 293.98-29.5 293.98 0ZM301.48 0L299.98 0 299.98-29.5 301.48-29.5 301.48 0ZM304.48 0L302.98 0 302.98-29.5 304.48-29.5 304.48 0ZM311.98 0L310.48 0 310.48-29.5 311.98-29.5 311.98 0ZM319.48 0L317.98 0 317.98-29.5 319.48-29.5 319.48 0ZM325.48 0L320.98 0 320.98-29.5 325.48-29.5 325.48 0ZM332.98 0L331.48 0 331.48-29.5 332.98-29.5 332.98 0ZM335.98 0L334.48 0 334.48-29.5 335.98-29.5 335.98 0ZM338.98 0L337.48 0 337.48-29.5 338.98-29.5 338.98 0ZM344.98 0L340.48 0 340.48-29.5 344.98-29.5 344.98 0ZM318.93 16.15L318.93 16.15Q317.58 16.15 316.78 15.15L316.78 15.15Q315.98 14.15 316.03 12.2L316.03 12.2 316.03 7.45 317.33 7.45 317.33 12.2Q317.33 13.7 317.88 14.4L317.88 14.4Q318.38 15.1 319.28 15.1L319.28 15.1Q320.23 15.1 320.88 14.3L320.88 14.3Q321.58 13.55 321.58 12.15L321.58 12.15 321.58 7.45 322.88 7.45 322.88 14.65Q322.88 15.1 322.88 15.35L322.88 15.35Q322.93 15.65 323.03 15.95L323.03 15.95 321.78 15.95Q321.63 15.65 321.63 15.35L321.63 15.35Q321.58 15.1 321.58 14.65L321.58 14.65Q321.18 15.35 320.48 15.75L320.48 15.75Q319.78 16.15 318.93 16.15ZM347.98 0L346.48 0 346.48-29.5 347.98-29.5 347.98 0ZM355.48 0L353.98 0 353.98-29.5 355.48-29.5 355.48 0ZM358.48 0L356.98 0 356.98-29.5 358.48-29.5 358.48 0ZM365.98 0L364.48 0 364.48-29.5 365.98-29.5 365.98 0ZM373.48 0L371.98 0 371.98-29.5 373.48-29.5 373.48 0ZM379.48 0L374.98 0 374.98-29.5 379.48-29.5 379.48 0ZM382.48 0L380.98 0 380.98-29.5 382.48-29.5 382.48 0ZM385.48 0L383.98 0 383.98-29.5 385.48-29.5 385.48 0ZM391.48 0L386.98 0 386.98-29.5 391.48-29.5 391.48 0ZM398.98 0L397.48 0 397.48-29.5 398.98-29.5 398.98 0ZM375.08 7.25L375.08 7.25Q376.43 7.25 377.33 8.2L377.33 8.2 376.73 9.2 376.68 9.4 376.53 9.3Q376.48 9.1 376.43 9L376.43 9Q376.33 8.85 376.08 8.7L376.08 8.7Q375.63 8.4 374.98 8.4L374.98 8.4Q374.33 8.4 373.73 8.75L373.73 8.75Q373.13 9.05 372.78 9.75L372.78 9.75Q372.38 10.45 372.38 11.45L372.38 11.45 372.38 15.95 371.03 15.95 371.03 7.45 372.43 7.45 372.38 9Q372.73 8.2 373.48 7.7L373.48 7.7Q374.23 7.25 375.08 7.25ZM401.98 0L400.48 0 400.48-29.5 401.98-29.5 401.98 0ZM412.48 0L407.98 0 407.98-29.5 412.48-29.5 412.48 0ZM415.48 0L413.98 0 413.98-29.5 415.48-29.5 415.48 0ZM421.48 0L416.98 0 416.98-29.5 421.48-29.5 421.48 0ZM424.48 0L422.98 0 422.98-29.5 424.48-29.5 424.48 0ZM427.48 0L425.98 0 425.98-29.5 427.48-29.5 427.48 0ZM433.48 0L428.98 0 428.98-29.5 433.48-29.5 433.48 0ZM436.48 0L434.98 0 434.98-29.5 436.48-29.5 436.48 0ZM442.48 0L437.98 0 437.98-29.5 442.48-29.5 442.48 0ZM449.98 0L448.48 0 448.48-29.5 449.98-29.5 449.98 0ZM438.68 16.15L438.68 16.15Q436.43 16.15 435.03 14.65L435.03 14.65 435.73 13.5 435.78 13.35 435.93 13.4Q435.93 13.45 435.98 13.6L435.98 13.6Q435.98 13.7 436.08 13.85L436.08 13.85Q436.13 13.95 436.28 14.05L436.28 14.05Q437.33 14.95 438.88 14.95L438.88 14.95Q439.88 14.95 440.58 14.4L440.58 14.4Q441.28 13.8 441.28 13L441.28 13Q441.28 12.45 441.03 12.05L441.03 12.05Q440.83 11.7 440.28 11.35L440.28 11.35Q439.73 11 438.58 10.5L438.58 10.5Q436.88 9.85 436.13 9L436.13 9Q435.43 8.15 435.43 7.1L435.43 7.1Q435.43 5.8 436.38 5L436.38 5Q437.33 4.2 438.93 4.2L438.93 4.2Q439.88 4.2 440.73 4.6L440.73 4.6Q441.53 5 442.18 5.65L442.18 5.65 441.33 6.8 441.23 6.7Q441.23 6.65 441.18 6.55L441.18 6.55Q441.18 6.4 441.08 6.3L441.08 6.3Q441.03 6.15 440.88 6.05L440.88 6.05Q440.48 5.65 439.93 5.45L439.93 5.45Q439.43 5.3 438.73 5.3L438.73 5.3Q437.83 5.3 437.33 5.8L437.33 5.8Q436.78 6.3 436.78 7L436.78 7Q436.78 7.55 436.98 7.95L436.98 7.95Q437.23 8.35 437.83 8.7L437.83 8.7Q438.43 9.1 439.63 9.55L439.63 9.55Q441.28 10.25 441.93 10.95L441.93 10.95Q442.53 11.7 442.53 12.8L442.53 12.8Q442.53 13.65 442.13 14.4L442.13 14.4Q441.68 15.15 440.83 15.65L440.83 15.65Q439.93 16.15 438.68 16.15ZM452.97 0L451.47 0 451.47-29.5 452.97-29.5 452.97 0ZM460.47 0L458.97 0 458.97-29.5 460.47-29.5 460.47 0ZM463.47 0L461.97 0 461.97-29.5 463.47-29.5 463.47 0ZM470.97 0L469.47 0 469.47-29.5 470.97-29.5 470.97 0ZM478.47 0L476.97 0 476.97-29.5 478.47-29.5 478.47 0ZM484.47 0L479.97 0 479.97-29.5 484.47-29.5 484.47 0ZM487.47 0L485.97 0 485.97-29.5 487.47-29.5 487.47 0ZM490.47 0L488.97 0 488.97-29.5 490.47-29.5 490.47 0ZM493.47 0L491.97 0 491.97-29.5 493.47-29.5 493.47 0ZM503.97 0L499.47 0 499.47-29.5 503.97-29.5 503.97 0ZM481.02 16L477.52 11.7 476.42 12.75 476.42 15.95 475.07 15.95 475.07 3.6 476.57 3.6 476.57 3.7Q476.47 3.85 476.42 3.95L476.42 3.95Q476.42 4.1 476.42 4.4L476.42 4.4 476.42 11.35 480.67 7.4Q481.12 7.5 481.67 7.5L481.67 7.5 482.12 7.5 478.57 10.9 482.72 15.95 481.02 16ZM506.97 0L505.47 0 505.47-29.5 506.97-29.5 506.97 0ZM514.47 0L512.97 0 512.97-29.5 514.47-29.5 514.47 0ZM517.47 0L515.97 0 515.97-29.5 517.47-29.5 517.47 0ZM524.97 0L523.47 0 523.47-29.5 524.97-29.5 524.97 0ZM532.47 0L530.97 0 530.97-29.5 532.47-29.5 532.47 0ZM535.47 0L533.97 0 533.97-29.5 535.47-29.5 535.47 0ZM541.47 0L536.97 0 536.97-29.5 541.47-29.5 541.47 0ZM544.47 0L542.97 0 542.97-29.5 544.47-29.5 544.47 0ZM554.97 0L550.47 0 550.47-29.5 554.97-29.5 554.97 0ZM557.97 0L556.47 0 556.47-29.5 557.97-29.5 557.97 0ZM529.67 15.95L529.67 14.85 531.87 14.85 531.87 8.55 529.77 8.55 529.77 7.45 533.17 7.45 533.17 14.85 535.17 14.85 535.17 15.95 529.67 15.95ZM532.47 5.65L532.47 5.65Q532.07 5.65 531.77 5.4L531.77 5.4Q531.52 5.1 531.52 4.7L531.52 4.7Q531.52 4.3 531.77 4.05L531.77 4.05Q532.02 3.75 532.47 3.75L532.47 3.75Q532.82 3.75 533.12 4.05L533.12 4.05Q533.42 4.35 533.42 4.7L533.42 4.7Q533.42 5.1 533.12 5.4L533.12 5.4Q532.82 5.65 532.47 5.65ZM560.97 0L559.47 0 559.47-29.5 560.97-29.5 560.97 0ZM568.47 0L566.97 0 566.97-29.5 568.47-29.5 568.47 0ZM571.47 0L569.97 0 569.97-29.5 571.47-29.5 571.47 0ZM578.97 0L577.47 0 577.47-29.5 578.97-29.5 578.97 0ZM586.47 0L584.97 0 584.97-29.5 586.47-29.5 586.47 0ZM589.47 0L587.97 0 587.97-29.5 589.47-29.5 589.47 0ZM595.47 0L590.97 0 590.97-29.5 595.47-29.5 595.47 0ZM598.47 0L596.97 0 596.97-29.5 598.47-29.5 598.47 0ZM601.47 0L599.97 0 599.97-29.5 601.47-29.5 601.47 0ZM611.97 0L607.47 0 607.47-29.5 611.97-29.5 611.97 0ZM583.27 15.95L583.27 14.85 585.82 14.85 585.82 4.65 583.42 4.65 583.42 3.6 587.17 3.6 587.17 14.85 589.67 14.85 589.67 15.95 583.27 15.95ZM614.96 0L613.46 0 613.46-29.5 614.96-29.5 614.96 0ZM622.46 0L620.96 0 620.96-29.5 622.46-29.5 622.46 0ZM625.46 0L623.96 0 623.96-29.5 625.46-29.5 625.46 0ZM632.96 0L631.46 0 631.46-29.5 632.96-29.5 632.96 0ZM640.46 0L638.96 0 638.96-29.5 640.46-29.5 640.46 0ZM643.46 0L641.96 0 641.96-29.5 643.46-29.5 643.46 0ZM649.46 0L644.96 0 644.96-29.5 649.46-29.5 649.46 0ZM652.46 0L650.96 0 650.96-29.5 652.46-29.5 652.46 0ZM655.46 0L653.96 0 653.96-29.5 655.46-29.5 655.46 0ZM665.96 0L661.46 0 661.46-29.5 665.96-29.5 665.96 0ZM637.26 15.95L637.26 14.85 639.81 14.85 639.81 4.65 637.41 4.65 637.41 3.6 641.16 3.6 641.16 14.85 643.66 14.85 643.66 15.95 637.26 15.95ZM668.96 0L667.46 0 667.46-29.5 668.96-29.5 668.96 0ZM676.46 0L674.96 0 674.96-29.5 676.46-29.5 676.46 0ZM679.46 0L677.96 0 677.96-29.5 679.46-29.5 679.46 0ZM686.96 0L685.46 0 685.46-29.5 686.96-29.5 686.96 0ZM694.46 0L692.96 0 692.96-29.5 694.46-29.5 694.46 0ZM697.46 0L695.96 0 695.96-29.5 697.46-29.5 697.46 0ZM703.46 0L698.96 0 698.96-29.5 703.46-29.5 703.46 0ZM706.46 0L704.96 0 704.96-29.5 706.46-29.5 706.46 0ZM712.46 0L707.96 0 707.96-29.5 712.46-29.5 712.46 0ZM719.96 0L718.46 0 718.46-29.5 719.96-29.5 719.96 0ZM694.46 16.15L694.46 16.15Q692.31 16.15 690.86 14.8L690.86 14.8 691.61 13.55 691.71 13.35 691.86 13.45Q691.86 13.5 691.86 13.6L691.86 13.6Q691.91 13.75 691.96 13.85L691.96 13.85Q692.06 14 692.16 14.15L692.16 14.15Q692.61 14.55 693.16 14.8L693.16 14.8Q693.71 15 694.51 15L694.51 15Q695.51 15 696.11 14.65L696.11 14.65Q696.66 14.3 696.66 13.65L696.66 13.65Q696.66 13.1 696.21 12.75L696.21 12.75Q695.76 12.4 694.51 12.05L694.51 12.05Q691.31 11.1 691.31 9.4L691.31 9.4Q691.31 8.4 692.16 7.85L692.16 7.85Q692.96 7.25 694.46 7.25L694.46 7.25Q695.61 7.25 696.41 7.6L696.41 7.6Q697.21 7.9 697.86 8.6L697.86 8.6 697.06 9.5 696.96 9.65 696.86 9.55Q696.86 9.35 696.76 9.25L696.76 9.25Q696.71 9.1 696.51 8.95L696.51 8.95Q696.06 8.6 695.56 8.45L695.56 8.45Q695.01 8.25 694.51 8.25L694.51 8.25Q693.71 8.25 693.16 8.55L693.16 8.55Q692.66 8.8 692.66 9.3L692.66 9.3Q692.66 9.8 693.21 10.15L693.21 10.15Q693.71 10.55 695.06 10.95L695.06 10.95Q696.66 11.45 697.31 12L697.31 12Q698.01 12.55 698.01 13.5L698.01 13.5Q698.01 14.65 697.11 15.4L697.11 15.4Q696.21 16.15 694.46 16.15Z" opacity="1" transform="matrix(1,0,0,1,0,0)" fill="#61777f" class="slogan-text-1" data-fill-palette-color="secondary" id="text-1"></path></svg></g></svg></g></svg></g></svg></g></svg></g><defs></defs></svg><rect width="395.52" height="227.9026598885771" fill="none" stroke="none" visibility="hidden"></rect></g></svg></g></svg>